<svg width="20" height="4" viewBox="0 0 20 4" fill="none" xmlns="http://www.w3.org/2000/svg">
<path d="M1.33875 2.856C1.10408 2.61067 0.98675 2.312 0.98675 1.96C0.98675 1.608 1.10408 1.31467 1.33875 1.08C1.58408 0.834667 1.88275 0.712 2.23475 0.712C2.58675 0.712 2.88008 0.834667 3.11475 1.08C3.36008 1.31467 3.48275 1.608 3.48275 1.96C3.48275 2.312 3.36008 2.61067 3.11475 2.856C2.88008 3.09067 2.58675 3.208 2.23475 3.208C1.88275 3.208 1.58408 3.09067 1.33875 2.856ZM9.10438 2.856C8.86971 2.61067 8.75238 2.312 8.75238 1.96C8.75238 1.608 8.86971 1.31467 9.10438 1.08C9.34971 0.834667 9.64838 0.712 10.0004 0.712C10.3524 0.712 10.6457 0.834667 10.8804 1.08C11.1257 1.31467 11.2484 1.608 11.2484 1.96C11.2484 2.312 11.1257 2.61067 10.8804 2.856C10.6457 3.09067 10.3524 3.208 10.0004 3.208C9.64838 3.208 9.34971 3.09067 9.10438 2.856ZM16.87 2.856C16.6353 2.61067 16.518 2.312 16.518 1.96C16.518 1.608 16.6353 1.31467 16.87 1.08C17.1153 0.834667 17.414 0.712 17.766 0.712C18.118 0.712 18.4113 0.834667 18.646 1.08C18.8913 1.31467 19.014 1.608 19.014 1.96C19.014 2.312 18.8913 2.61067 18.646 2.856C18.4113 3.09067 18.118 3.208 17.766 3.208C17.414 3.208 17.1153 3.09067 16.87 2.856Z" fill="white"/>
</svg>
